<?xml version="1.0" encoding="utf-8"?>
<!-- Generator: Adobe Illustrator 23.0.2, SVG Export Plug-In . SVG Version: 6.00 Build 0)  -->
<svg version="1.1" id="Camada_1" xmlns="http://www.w3.org/2000/svg" xmlns:xlink="http://www.w3.org/1999/xlink" x="0px" y="0px"
	 viewBox="0 0 484 101" style="enable-background:new 0 0 484 101;" xml:space="preserve">
<style type="text/css">
	.st0{fill:#3f89af;}
</style>
<g>
	<path class="st0" d="M32.4291306,7.8895669c0.2456207,0,0.3684349,0,0.4912453,0.1228118c0,0,0.1228104,0,0.1228104,0.1228113
		v0.1228113c0.367836,1.7175655,1.3497314,3.3129196,2.9444847,4.7848625c0,0,1.5953522,0.1228113,1.7175674,0.1228113
		c0.4912453,0,1.4725418,1.3497305,1.4725418,1.3497305c0,0.1228113,0.1228104,0.4906473,0.1228104,0.6134586l0.7362709,0.2456236
		c0.2450256-0.2456236,0.2450256-0.3684349,0.2450256-0.6134596c0-0.1228113,1.3497276-1.5953531,1.3497276-1.5953531
		s0.6140594-1.3497305,0.7362709-1.7175665c0.1228104-0.3684349,0.8590813-0.6134586,1.3497314-0.9818935l0.1228104-0.1228123
		h0.1228104c0.1228142-0.1222124,0.1228142-0.4906473,0.2450256-0.735671h0.1228104
		c0-0.1228123,0.1228142-0.1228123,0.1228142-0.2456236h0.4906464h0.3684349h0.2450218h0.1228142h0.6134567l0.7362709,0.1228113
		c0.2456245,0,0.6134605,0,0.8590851,0.1228123l0.1228104,0.1222124h0.1222115
		c0.2456245,0.1228113,0.6140594,0.3684349,0.8590851,0.4912462h0.1228104
		c0.2456245,0.1222124,0.367836,0.2450247,0.6134605,0.4906473c0.7362709,0.6134596,1.2269173,1.5947542,1.472538,2.5766487
		c0,0.1228113,0.1228142,0.1228113,0.1228142,0.2456226v0.9812956v0.2456226c0,0.1228123-0.1228142,0.1228123-0.1228142,0.2450247
		c-0.1228104,0.8590822-0.6134567,1.7181644-1.2269173,2.4544353c-0.1228104,0.1222134-0.1228104,0-0.2456207,0.1222134
		l-0.1228142,0.1228104l-0.1228104,0.1228123h-0.1222115c0,0-0.1228142,0.1228123-0.1228142,0.2456226v0.1222134
		c0,0.2456226,0,0.3684349,0.1228142,0.4912472c0,0.1228104,0.1222115,0,0.1222115,0.1228104
		c0,0.1222134-0.1222115,0.2450237-0.1222115,0.367836c-0.2456245,0.367836-0.9818954,0.4906483-1.1047058,1.1041069h0.1228104
		c0.3684349-0.1228123,0.6134605-0.2450237,0.9818954-0.2450237l0.367836-0.1228123v0.6134586
		c0.1228104,0,0.3684349,0.2450256,0.6134567,0.367836c0.3684349,0.1228123,0.6134605,0.2456245,0.8590813,0.4912472
		l0.367836,0.367836l0.1228142,0.1228104c0.1228104,0.2450256,0.2456207,0.2450256,0.367836,0.4906483
		c0.3684349,0.6134586,0.6140556,1.2269192,0.6140556,1.9631882v0.1228123c0,0.367836-0.1228104,0.7362709-0.1228104,1.1041069
		l-0.3684349,1.8403778c0,0.1228104,0,0.3684349-0.1228104,0.6134586c-0.1222153,0.4912472-0.367836,0.9818935-0.6134605,1.4725418
		c-0.367836,0.7362709-0.735672,1.4725418-1.2269173,2.2088127c-0.2450256,0.367836-0.6134605,0.8584824-0.6134605,0.8584824
		l-0.2450218,0.3684349l0.2450218,0.2456245l0.6134605,0.4906464l1.3497276,1.2269173l1.1047058,0.9812965l0.735672,0.6134567
		l0.2456245,0.1228142l-0.7362709,0.6134567l0.7362709,2.0860023l-2.9444847,1.1041069c-0.1228104,0,0,0,0,0.2456245v0.2456207
		c1.7175674,2.8216743,3.3129196,6.1345901,4.171402,9.8159447v0.2450256v0.1228104L43.717617,55.6195602l-5.2761078-12.8832397
		l-1.2269211-3.0672951l-0.7362709,1.5947533l-4.2942123,10.5522156L31.81567,58.0739975l-0.6134586,8.466217
		c0.8590832,1.2269135,4.2948132,1.5947495,4.539835,1.5947495c0.2456245,0,0.3684349-0.2456207,0.6134605-0.4906464
		c0.2456245-1.8403778,0.7362709-7.3621063,0.9818954-11.2884865c0.1228104-1.2269173,0.1228104-2.3310242,0.1228104-2.9444847
		c1.2269173-0.7362709,3.43573-2.4544334,3.43573-2.4544334s2.2082138,5.3989182,2.3310242,5.6445427l12.6382179-5.1532974
		c0-0.1228104-0.1228104-0.3684349-0.1228104-0.4912453l-0.1228142-0.2450256
		c-0.8590813-3.5585403-2.2088127-6.6258354-3.803566-9.3252983l-0.1228104-0.2456207
		c0.367836-0.1222115,0.9818916-0.4906464,1.2269173-0.4906464c0.9818954,0,1.1047058,0.8590813,1.8403778,0.8590813
		c0.1228104,0,0.6134605-0.1228142,1.3497276-0.3684349c1.1047058-0.4906464,2.3316269-0.8584824,3.6813545-1.1041069
		c1.1041069-0.2456245,2.3310242-0.367836,3.5579453-0.367836c0.9818916,0,1.840374,0.1222115,2.8222694,0.2450256
		c1.7175674,0.2456207,3.5585403,0.7362709,5.0304871,1.472538c0.3684311,0.1228142,0.6134567,0.367836,0.9818954,0.4906502
		c0.245018,0.1228104,0.4906464,0.1228104,0.6134567,0.2456207c0.1228104,0,0.1228104,0.1228142,0.2450256,0.1228142
		c0.1228104,0,0.3684311,0.1228104,0.4912415,0.1228104c0.2450256,0,0.490654,0.1222115,0.7362747,0.1222115
		c0.367836,0,0.8584824-0.1222115,1.3491287-0.1222115c4.9082718,0,8.8346481,4.0485916,8.8346481,9.0796738
		c0,0.8584824-0.1228104,1.7175674-0.367836,2.4538383v0.1228104l-1.7181625,6.1345901l-1.2269211,4.4176216
		c-0.1228104,0.6134644-0.367836,1.2269211-0.4906464,1.9631958c0,0.1222076-0.1228104,0.1222076-0.1228104,0.245018
		c-0.4906464,2.2088165,0.4906464,4.5398407,2.0859985,5.8895721c-1.4725418,0-2.6994553-0.4906464-3.803566-1.3497314
		c0,0-0.1228104,0.2456207-0.1228104,0.3684311c0,0.2450256,0.367836,0.2450256,0.367836,0.490654
		c0.3684387,1.2269135,0.7362747,1.5953522,1.4725418,2.3310242c0.2456207,0.2456207,0.6134567,0.4912415,0.9818954,0.9818878
		c-0.8590851,1.2269211-1.8409805,4.171402-1.9637909,4.29422c0,0.2456207,0.4912491,6.1351852,0.4912491,6.3808136
		c0,0.245018,0.2450256,0.6134567,0.367836,0.9812927c0.2456207,0.8590851,0.7362671,2.0859985,0.7362671,2.9450836v0.1222076
		c0,0.2456284,0,0.3684387-0.1228104,0.4912491l-0.6134567,0.6134567c-0.7362747,0.9813004-1.4725418,2.2082138-1.9631882,3.5579453
		c-0.2450256,0.7362747-0.4906464,1.5953522-0.6134567,2.3316269h-4.7854614
		c0.1228104-0.8590851,0.3684311-1.8409805,0.7362671-2.6994629c0.7362747-1.5953522,1.7181625-2.8222733,2.8222733-3.6813507
		V90.711937c0-0.2456207,0.8590851-3.1907043,0.8590851-3.43573c0-0.2456207-0.122818-1.5953522-0.122818-1.8403778
		c0-0.2456207-0.6134567-3.3129196-1.1041031-4.9082718c-0.2456207-0.8590851-0.4912491-1.9631882-1.1047058-2.8216705
		c-0.2450256-0.3684387-0.8584824-0.7362747-1.1041031-0.9818954c-0.6134644-0.6134567-1.5953598-1.5953522-1.7175674-2.3310242
		c-0.2456284-0.1228104-0.4912491-0.1228104-0.7362747-0.2456207c-0.7362671-0.367836-1.3497314-0.7362747-2.0859985-1.2269211
		c-1.2269211-0.8590851-2.4538345-1.8403778-3.43573-3.0672989c-0.1228104-0.1228104-0.2450256-0.3684311-0.367836-0.4912415
		c-0.4912491-0.6134567-0.8590851-1.3497314-1.2269211-2.0859985c-0.3684311-0.6134644-0.7362671-1.2269211-0.9818916-1.9631958
		c-0.1228104-0.367836-0.2456245-0.8584824-0.367836-1.3497276l-0.3684349-1.4719429
		c-0.1228104-0.3684349-0.2450256-0.7362709-0.2450256-1.1047058l-0.7362709-0.3678322
		c-0.1228104,0-0.2456207-0.1228142-0.3684349-0.1228142l-0.1228104-0.1228104
		c-1.2269173-0.7362709-2.2082138-1.7175674-3.0672951-2.9444847c0-0.1228104-0.2450256-0.1228104-0.2450256-0.2456245
		c0,0.1228142,0.2450256,0.2456245,0.2450256,0.3684349c0.2456245,0.4906502,0.4906464,0.8584862,0.8590813,1.3497314
		c0.4906502,0.735672,0.9812965,1.3497314,1.7175674,1.9631882c0.2456245,0.2450256,0.4906464,0.367836,0.7362709,0.4906464
		v0.1228142c0,0.367836,0.1228104,0.8584824,0.2456207,1.2269173c0.1228142,0.8584824,0.367836,1.5947533,0.6134605,2.331028
		l0.7362709,1.8403778c0.6134605,1.2275162,1.2269173,2.4544296,2.0853996,3.43573l0.1228104,0.2456207
		c-0.245018,0.2450256-1.472538,1.8403778-1.9631844,2.5766449c-0.1228142,0.122818-0.2450256,0.2456284-0.2450256,0.367836
		c0,0.122818-0.1228104,0.2456284-0.1228104,0.3684387c-0.1228142,0.2450256-0.2456245,0.4906464-0.2456245,0.8584824v1.4725418
		l0.3684349,1.2269211l-1.5953522,0.2456207c0,0-0.9812965,0.2456207-1.3497314,0.2456207
		c-0.2456207,0.1222153-1.4725418,0.4906464-1.8403778,0.735672c-0.6134567,0.4912491-1.8403778,1.7181625-2.5766449,2.6994629
		c-0.3684349,0.4912415-1.7175674,2.3316193-2.2088127,3.3129196c0.3684349,0.4912415,0.7362709,1.3497238,0.7362709,2.2088089
		v0.367836v0.3684387c0,0.8584824-0.4906502,1.4725418-0.8590851,1.9631882
		c0.2456245,0.367836,0.6140594,1.1041031,0.8590851,1.5947495l0.7362709,1.4725418l-0.1228142,0.1228104l-2.8222694,2.3310242
		l-1.5947533,1.3497314c-0.1228142-0.2450256-0.1228142-0.367836-0.2456245-0.6134567
		c-0.367836-0.9812927-0.6134605-2.2082138-0.6134605-3.3129196c0-0.7362671,0-1.5947571,0.1228142-2.3310242
		c0-0.3684387,0.1228104-0.6134567,0.2456207-0.9818954c-0.2456207-0.2450256-0.3684349-0.6134567-0.4912453-0.9812927
		c-0.1222115-0.2456207-0.1222115-0.6134567-0.1222115-0.9818954c0-1.2269211,0.6134567-2.2082138,1.3497276-2.5766449
		c0.4906464-0.7362747,2.4538383-4.4170303,6.3802147-9.2024918c0-0.4906464,0.1228104-0.8584824,0.1228104-1.3497238
		c0-0.367836,0-0.735672,0.1222153-1.1041107c0.1228104-0.6134567,0.2456207-1.2269135,0.4912453-1.7175674V71.570694
		c-0.3684349-0.4906464-0.7362709-0.9818954-0.9818954-1.5953522c-0.6134567-1.2269135-0.9812927-2.6994553-1.1041031-4.2942123
		c0-0.3684387-0.1228142-0.7362747-0.1228142-1.1041107V64.331398v-0.1228104
		c-0.4906464,0.2456207-1.1041069,0.3684311-1.7175636,0.6134567c-2.9450836,1.1047058-6.2580032,2.0860062-9.9387589,2.8222733
		c-2.4538345,0.4906464-5.0304832,0.7362747-7.239296,0.8590851c-0.4906464,0.367836-1.7175636,1.9631882-1.7175636,1.9631882
		s-5.5217323-1.7181625-5.7673569-1.9631882h-0.1222115l-0.1228123,0.1222076
		c0.2450237,0.4912491,0.9812946,1.1047058,0.8584843,1.3497314c-0.8584843,1.5953522-1.1041069,3.8041687-1.1041069,3.9263763
		c-0.2456226,1.3497314-0.7362709,3.926384-0.7362709,4.1720047s0.3684349,7.3621063,0.3684349,7.3621063
		s0.9812946,1.5947571,1.3497295,2.6994629c0.367836,1.1041031,0.367836,2.0853958,0.4906483,2.5766449
		c-0.4906483,0.4906464-0.6134605,0.8584824-0.9818954,1.5947571c-0.6134586,1.2269135-0.8584824,2.6994553-0.8584824,3.9263763
		c0,0.3684311,0,0.6134567,0.1222134,0.9818954h-5.6439438c0.1228104-1.1047058,0.3684349-2.2088165,0.8590813-3.3129196
		c0-0.1228104,0-0.2456207,0.1228123-0.3684387l0.367836-0.7362671l0.7362709-1.4719467
		c0.1228104-0.2456207,0.367836-0.2456207,0.4906464-0.4912415c0.1228123-0.1222153,0.1228123-0.367836,0.2456245-0.4906464
		c0.1228104-0.2450256,0.2450237-0.4906464,0.2450237-0.7362747v-0.4906464
		c-0.1222134-2.9444809-0.367836-4.9076691-0.367836-5.1532974v-1.1041031
		c-0.2456226-1.5953522-0.7362709-3.3129196-0.7362709-5.1532974c0,0-2.2082138-4.4176254-2.2082138-5.2761078
		c0-0.2456207-1.3497295-4.1720047-1.9637871-6.5030289c0.7362709-0.2456207,1.4725418-0.6140594,1.9637871-1.2275162
		c0.4906483-0.4906464,0.735672-1.2269173,0.8584843-1.8403778c0.1228123-0.2450218,0.1228123-0.4906464,0.1228123-0.8584824
		v-0.4912453c1.7175655-1.1041069,2.8222713-2.9444847,3.3129177-4.9076729
		c-0.1228123,0.367836-0.2456226,0.7362709-0.4906464,0.9812927c-0.4912472,0.8590851-1.2269192,1.595356-2.0860023,2.2088127
		l-1.104105,0.7362709c-0.3684349,0.2450256-0.8590832,0.367836-1.2275181,0.4906502
		c0.1228123,0.2456207,0.2456226,0.3678322,0.2456226,0.6134567c0,0.1228104,0.1228123,0.1228104,0.1228123,0.2456245v0.2450218
		v0.1228142v0.1228104c0,0.1228104-0.1228123,0.2456245-0.1228123,0.367836
		c-0.1228104,0.4912453-0.4906464,0.9818954-0.8590813,1.3497314c-0.367836,0.2456207-0.8584843,0.4912415-1.3497295,0.4912415
		c-0.2450256,0-0.9812965-0.1228104-1.4719429-0.1228104c-0.4912472,0-1.1047058,0.2450256-1.3497295,0.2450256
		c-0.2456245,0-7.8527565-0.7362709-8.0983801-0.6134567c-0.73627,0.6134567-2.3310242,1.1047058-2.8222713,1.1047058
		c-0.2450242,2.6988602,0.1228118,9.8159409,0.1228118,10.0609665l0.2456231,0.2456207
		c0.6134591,0.6134644,1.1041059,1.3497314,1.1041059,2.3310318v0.2456207l0.7362709,0.7362671l0.2456236,0.2450256
		c0.8584833,0.8590851,1.4719419,1.8409805,1.9631882,2.6994629v0.1228104l-2.4544344,4.7854614
		c-1.1041059-1.1041107-2.0854011-2.6994629-2.6988602-4.5398407c-0.1228118-0.3684311-0.2456241-0.6134567-0.3684349-0.9818954
		v-0.1228104C4.5766482,80.6503677,4.2088122,79.7912903,4.086,78.9328079c0-0.2456284-0.122812-0.2456284-0.122812-0.4912491
		v-0.2450256c0-0.4906464,0.3678362-1.7181625,0.3678362-1.8403778c0,0,0-1.1047058-0.1222119-1.8409729
		C4.086,73.2882614,2.981894,66.2945862,2.7362709,65.5583191C2.6134591,64.9448547,2,64.699234,2,63.5951271
		s1.226918-2.5766449,2.8222713-2.6994591c1.5947542-0.1228104,2.086,0.4906464,2.3310251,0.3684349
		c1.8403769-0.6134567,4.4170256-0.9818916,5.3989201-1.2275162c0.367836-0.1222115,1.9631891-0.6134605,1.9631891-0.6134605
		c0.1228113,0,0.1228113-0.1222115,0.2456226-0.1222115c0.1222134-0.1228104,0.2450247-0.1228104,0.367836-0.2456245
		c0.7362709-0.6134567,1.2269173-1.2269173,1.5947533-2.0859985c-0.2450237,0.2456207-0.367836,0.4906464-0.6134586,0.6134567
		c-0.2450247,0.1228142-0.367836,0.3684349-0.6134596,0.4912491c-0.367836,0.2450218-0.735672,0.367836-1.1041069,0.4906464
		h-0.2456226v-0.1228104c0-0.1228142-0.1222124-0.1228142-0.1222124-0.2456245
		c-0.2456236-0.6134605-0.4912472-1.1041069-0.6134596-1.8403778c0-0.2456245-0.1228113-0.367836-0.1228113-0.6134567
		c0-0.1228142-0.1228123-0.2456245-0.1228123-0.367836c-0.1228113-0.6134605-0.1228113-1.2269211-0.1228113-1.8409767v-0.367836
		v-0.2456245v-0.2450256v-0.3684349c0-0.4906464,0-0.9812927,0.1228113-1.4719391
		c0-0.3684349,0.1228123-0.7362709,0.2456236-1.1047058c0-0.1228142,0.1222124-0.367836,0.1222124-0.4906502
		c0.1228123-0.4906464,0.2456236-0.8590813,0.4912472-1.3497276c0.367835-1.2269211,0.8584833-2.6994591,0.6134586-4.2942162
		c0.2450247-0.2456207,0.4906473-0.6134567,0.7362709-0.7362709c0.6134586-0.3684349,1.1041069-0.4906464,1.1041069-0.6134567
		c0-0.2456245-0.2456245-0.8590851-0.3684349-1.2269173c0,0,2.0860004-0.1228142,3.43573-0.6140594
		c1.5953541-0.4906464,7.7299442-4.0485916,10.3065929-4.6620483c0.7362709,1.4719391,2.4544334,3.5579414,3.1907043,4.5398369
		c0.1222153-0.3684349,0.367836-0.7362709,0.735672-0.9818954c-0.2450218-0.7362709-0.8584824-0.7362709-1.2269173-1.2269173
		c-0.2450256-0.367836-0.8584824-1.1041069-0.9812946-1.4725418v-0.367836
		c-0.1228123-0.9818954,1.8403759-1.1041069,2.2082119-1.3497314c0.2456245-0.1228104,0.7362709-0.8590813,0.7362709-0.8590813
		c-0.4906464-0.4906464-1.9631882-1.8403778-1.9631882-1.8403778l5.0310822-5.6439438h-3.067894h-0.4906464
		c-0.8590813-0.1228104-1.4725418-0.7362709-1.9631882-1.3497295l-0.1228123-0.1228123l-0.367836-0.7362709v-0.2456226v-0.2450237
		c0-0.1228123-0.1228123-0.1228123-0.1228123-0.2456226v-0.1228123v-6.3802147h2.2088127
		c0.1222115-0.4906483,0.367836-0.9812946,0.8584824-1.4725418l-0.1222115-0.1222124
		c-2.3316231-0.8590822-4.1720009-2.4544353-5.0310841-4.0491896c-0.1228123-0.2456226,0-0.8590822,0.2456226-1.3497295
		c0.1228123-0.2456236,0.2450256-0.4906473,0.4906483-0.7362709l0.3684349-0.3684349
		c0.367836-0.367836,0.735672-0.6134586,1.1041069-0.8584833c0.2450237-0.1228113,0.4906483-0.2456231,0.736269-0.2456231
		H32.4291306z M12.4294043,21.141243c2.5766478,0,5.6439428,0.736269,7.4849195,1.8403759
		c2.0854015,1.2269192,3.803566,2.9450836,5.1532955,4.5398369c1.3497314,1.5953541,3.9263783,5.6445446,4.2942142,6.9942722
		c-1.8403778,0.735672-3.5579433,1.7175674-5.6439438,2.9444847s-4.5398369,2.3310242-7.8527565,2.6994591
		c-0.3684349-0.2456207-0.4906473-1.5953522-0.3684349-2.5766487c0.1228113-0.9818916,1.4725418-3.3129158,1.7181644-4.9082718
		c0.2450237-1.3497276-0.3684349-2.0853996-0.3684349-2.0853996c-0.1228123,0.4906464,0.3684349,0.8584824-0.2450256,2.2082138
		c-0.6134586,1.3497276-1.4725409,3.3129158-1.7181625,5.0304832c-0.2450247,1.4725418,0.3684349,1.7181664,0.3684349,4.5404358
		c-0.9818935,0.2450256-3.3129196,2.5766487-4.2948132,2.5766487c-0.9812946,0-2.8216724-1.4725418-3.6807547-1.8409767
		c-0.1228118-1.9631882,0.1228118-2.0853996-0.1228118-3.1901054c-0.2450242-1.1041069-2.9444842-7.8527565-3.1901071-9.0796757
		s-0.4906471-3.43573-0.4906471-3.6807556c0-0.2456226-1.34973-2.8222713-1.34973-2.8222713l1.717566-0.9812946
		c0,0-0.490648-1.1047058-0.8584831-2.0860004c1.3491309-0.4912453,3.0672958,0.9812946,3.0672958,0.9812946
		s2.5766478-0.7362709,5.2761078-0.9812946L12.4294043,21.141243z M32.3069153,8.503026
		c-0.1228104,0-0.368433,0.1228113-0.6134567,0.2456236c-0.2456245,0.1228113-0.6134605,0.367835-0.8590832,0.6134586
		c-0.6134586,0.6134596-0.8590832,1.2269182-0.8590832,1.4725418v0.1228113v0.1222124
		c0.2456245,0.1228123,0.9818954-0.367836,1.5953541-0.9812946c0.4906483-0.4906473,0.736269-0.8590822,0.8584843-1.2269182
		V8.6258373V8.503026H32.3069153z M32.6747513,9.6077318c-0.2456207,0.367836-0.4906464,0.6134586-0.736269,0.9812946
		c-0.367836,0.3684349-0.6134586,0.4906473-0.9812946,0.7362709c-0.2456245,0.1228113-0.4906483,0.2456236-0.6134605,0.2456236
		c0.6134605,0.9812946,1.5947552,1.8403769,2.6994591,2.5766478c0.735672,0.4906473,1.4719429,0.8584833,2.331028,1.1041069
		c0-0.367836,0-0.7362709,0.1228104-1.1041069v-0.1228113c0-0.1228123,0.1228104-0.2456236,0.1228104-0.3684349
		C34.2701073,12.4294043,33.1654015,10.9574614,32.6747513,9.6077318z M35.1285896,34.515728
		c-0.4906464,0.2450256-0.6134605,0.735672-0.9812965,0.9812965c-0.3684349,0.2456245-1.8403778,0.1228104-1.8403778,0.8590813
		l0.6134605,1.2269173c0.1228104,0.2450256,0.2450256,0.367836,0.367836,0.367836
		c0.4906464,0.2456245,0.7362709,0.6134605,1.1047058,0.9818954c0.1222115-0.1228104,0.8584824-0.3684349,0.8584824-0.3684349
		c-0.1228104-0.2450256-0.2450218-1.3497314-0.2450218-1.9631882c0-0.4906502,0.1222115-0.9812965,0.2450218-1.4719429
		C35.2514,34.883564,35.1285896,34.6379433,35.1285896,34.515728z M39.5462151,25.1904316l-6.0123787,6.9936733l2.5766449,2.3316231
		c0.6134605,0,1.3497314-0.2456207,2.0860023-0.4912453c0.9812965-0.367836,2.0854034-0.9812965,2.9444847-1.8403778
		l0.1228104-0.1228104c0.367836-0.367836,0.6134605-0.6134605,0.8590813-0.9812965
		c0.2450256-0.3684349,0.367836-0.7362709,0.6134605-1.1047058c0.2450256-0.367836,0.367836-0.6134586,0.4906464-0.9812946
		l0.1228142-0.4906464L39.5462151,25.1904316z M35.0063782,15.7423229
		c-0.1228142,0.1228113-0.4912491,0.3684349-0.6134605,0.6134586c-0.4912453,0.9818935-0.4912453,1.7181644-0.2456245,1.9631901
		c0.2456245,0.2456226,1.3497314,0,1.5947533-0.1228123c0.2456245-0.1222134,0.9818954-0.6134586,1.1047058-0.8584843
		c-0.1228104-0.1228104-0.4912453-0.2456226-0.6134567-0.7362709c-0.1228142-0.1228104-0.2456245,0-0.3684349-0.1228104
		c-0.1228142-0.1228123-0.1228142-0.2456245-0.2450256-0.4906483
		C35.4970245,15.9879456,35.3742142,15.8651342,35.0063782,15.7423229z M36.2332954,13.6563215
		c-0.2456245,0.3684349-0.4912491,1.2275171,0,2.2088118L38.68713,15.742322v-0.8584824
		c-0.1228104-0.4912472-0.8590813-0.9818945-0.8590813-0.9818945s-1.2269173-0.2456226-1.4725418-0.2456226
		C36.3555069,13.6563225,36.2332954,13.6563225,36.2332954,13.6563215z M40.1596718,16.3557816h-0.6134567
		c0,0.2456226,0,0.4906483-0.2456245,0.7362709c-0.1228104,0.1228123-0.367836,0.2456226-0.6134605,0.3684349
		c-0.367836,0.1222134-0.8590813,0.2450237-1.2269173,0.1222134c0,0.1228104-0.1228104,0.2456226-0.2456245,0.2456226
		c-0.2450218,0.2456226-0.367836,0.2456226-0.6134567,0.367836c-0.1228142,0.1228123-0.2456245,0.2456226-0.2456245,0.6140575
		v1.8403778h1.5953522c0.2456245,0,1.1041069-0.2456226,1.595356-0.3684349
		c0.4906464,0.8590832,1.2269173,1.4725418,2.3310242,1.7181644l-0.367836,1.4719429
		c-0.2456245,0.7362709-0.3684349,1.4725418-0.6134605,2.2088127l0.9812965,0.8590813
		c0-0.8590813,0.1228104-1.8409767,0.3684349-2.6994591c0.1222115-0.4906483,0.4906464-1.2269192,0.4906464-1.5953541
		c0-0.367836,0.1228104-0.7362709,0.1228104-0.9812946c-0.9818916,0-1.8409767-0.4912453-2.3316231-1.2269173
		c-0.367836-0.4912472-0.4906464-1.1047058-0.4906464-1.7181644c0-0.2450256,0.1228104-0.367836,0.1228104-0.6134605v-0.1228104
		v-0.1222134V16.3557816z M38.9327545,16.3557816l-2.0860023,0.1228123c0,0-0.1228104,0.7362709,1.1041069,0.6134586
		C39.1777802,16.9692402,38.9327545,16.3557816,38.9327545,16.3557816z M45.557991,9.8527555l-0.3678322,0.1228123h-0.2456245
		c-0.1222115,0.6134586-0.1222115,1.4725409-0.1222115,2.2088118c0,0.2450247-0.1228142,0.2450247-0.1228142,0.4906473v0.6134596
		v0.2456226h-0.4912453v-0.9818935v-0.4906473V11.938756v-0.9812946c-0.1222115,0.1222124-0.367836,0.367836-0.735672,0.4906473
		c-0.2456245,0.2450247-0.6134605,0.367836-0.6134605,0.367836s-0.2456207,0.3684349-0.3684349,0.7362709
		c0.1228142,0.1228113,0.2456245,0.367836,0.2456245,0.4906473l0.7362709,0.3684349
		c0.2450256,0.1228113,0.2450256,0.2450247,0.2450256,0.6134596v0.2450237
		c-0.1228142,0.2456236-0.2450256,0.6140575-0.4906502,0.8590822c-0.1228104-0.1228113-0.367836-0.1228113-0.4906464-0.2450237
		c-0.3684349-0.2456236-0.7362709-0.7362709-0.9818954-0.9818945c-0.2450218,0.1228123-0.4906464,0.367836-0.6134567,0.6134596
		c-0.1228142,0.1228113-0.2450256,0.2456226-0.2450256,0.3684349c0.1222115,0,0.1222115,0,0.2450256,0.1222124
		c0.1228104,0.1228113,0.2456207,0.2456236,0.2456207,0.3684349s0.1228142,0.2450237,0.1228142,0.367836v0.1228113
		c0,0.1228113,0.1222115,0.1228113,0.1222115,0.2456236c0,0.1222115,0.1228104,0.2450237,0.1228104,0.367836
		c0,0.1228104,0.1228142,0,0.1228142,0.1228104l0.3684349,0.367836c0.1222115,0.1228123,0.2450218,0.2456245,0.4906464,0.3684349
		c0.1228104-0.2456226,0.2450256-0.3684349,0.367836-0.4912453l0.1228104-0.1222134
		c0-0.1228123,0.2456245-0.1228123,0.2456245-0.2456226c0.2450256-0.2456245,0.2450256-0.367836,0.4906464-0.6134596
		l0.1228142-0.2456236v-0.2450237v-0.2456236h0.6134567v0.2456236v0.1228113v0.1222124v0.6134586v0.3684349v0.4906483v0.1228123
		v0.2456226v0.1222134v0.4912453l0.367836-0.1228104h0.1228142v-0.4906483v-0.3684349h0.1228104
		c0.1228104,0,0.2450218-0.1228123,0.367836-0.1228123c0.4912453-0.2450237,0.9818916-0.4906464,1.3497276-0.9812946
		c0.4906502-0.6134586,0.9818954-1.2269182,1.1041069-1.8403769v-0.1228113l0.6140594,0.1228113l0.1222115-0.1228113
		c0.4912491,0,0.9818954,0,1.3497314-0.1228123c0.1228104,0,0.3684349-0.1228113,0.4912453-0.1228113h0.1222115v-0.367836
		c0-0.1228113-0.1222115-0.2456236-0.1222115-0.3684349c-0.1228104-0.2450237-0.1228104-0.367836-0.2456207-0.4906473
		c-0.1228142-0.2456236-0.367836-0.4906473-0.6134605-0.8590822c-0.1228104-0.2450247-0.2456245-0.4906473-0.4906464-0.735672
		h-0.1228142c-0.2456207-0.2456236-0.4906464-0.4912462-0.8590813-0.6140585h-0.1228104
		c-0.367836-0.2450237-0.9812965-0.2450237-1.4719429-0.367835c-0.1228142,0.4906473-0.3684349,0.9818945-0.4912491,1.5953531
		c-0.1222115,0.6134586-0.2450218,1.3491306-0.3678322,1.9631882h-0.4906502v-0.1228113
		c0-0.1228113,0.2450256-1.5953531,0.2450256-1.7181635c0-0.2450247,0.2456245-1.7175655,0.2456245-1.8403778
		C45.9264297,9.8527565,45.557991,9.8527565,45.557991,9.8527555z M49.1165352,33.4110222h-0.1228104
		c-0.1228142,0.1228142,0,0.1228142-0.1228142,0.2456245l-0.367836,0.367836c0,0.1228104-0.1228104,0.1228104-0.1228104,0.2456245
		l-0.2456245,0.2456207h-0.1222115c-1.1047058,1.1041069-2.3316231,2.0854034-3.5585403,2.8216743
		c-1.1041069,0.6134567-2.2082138,1.1047058-3.3129196,1.4725418l3.5585403,3.0672951l0.2450256,0.2456207l3.9263763-4.5398369
		l2.2088127-2.4538345L49.1165352,33.4110222z M51.4475594,35.3742142l-0.4906464,0.6134567l-0.1228142,0.1228104
		l-4.5398369,5.2761078l0.3684349,0.367836l4.4170265-3.6807518l1.8403778-1.4725418h-0.1228104L51.4475594,35.3742142z
		 M52.4294548,37.7058372l-0.1228142,0.1222115l-3.0672951,2.4544373l-0.6134567,0.4906464l0.367836-0.1228104l3.9263763-1.5947571
		h0.1228104L52.4294548,37.7058372z M76.8468018,46.1720505c0.4906464,1.1041069,1.7175674,4.4170265,1.7175674,5.7667542v2.9444847
		c0,0.2456245-0.6134567,2.6994591-1.1041031,4.1720009h0.1228104c1.3491287-1.5953522,2.0853958-3.6807518,2.0853958-5.8895645
		v-0.1228142v-0.7362709c-0.1228104-1.2269173-0.3678284-2.4538345-0.8584824-3.4351311
		c0-0.1228104-0.1228104,0-0.1228104-0.1228104c-0.4906464-0.9818954-1.1041031-1.7181664-1.8403778-2.4538345V46.1720505z
		 M98.6869049,21.2640533h46.625885v12.7604294h-31.0431824v18.0371361h23.9261017v12.7604256h-23.9261017v20.7365952h31.0431824
		v12.637619h-46.625885V21.2640533z M175.4969025,19.9143238c19.0184326,0,24.9073944,17.4230785,24.9073944,17.4230785
		l-13.4960938,5.6445427c0,0-2.822876-9.3252983-11.5335236-9.6937332
		c-10.7978363-0.4906464-12.0247498,11.4112968-1.1047058,15.4604874c7.8527679,2.8216705,12.5148163,4.5398369,16.318985,6.7480507
		c0.8590698,0.4912453,4.2942047,3.067894,4.7854462,3.5585403c7.9749756,7.1164856,6.8714752,17.0552444,6.8714752,17.0552444
		c-0.4912567,6.1351852-5.1544952,23.4354553-26.7489777,23.4354553c-14.9698486,0-25.2764282-9.0796738-27.362442-21.4722672
		l14.4785919-3.5585403c0,0,3.0673065,11.2884827,12.8838501,11.2884827c2.3316193,0,7.2392883-0.9812927,8.9574585-6.0123749
		c1.3491364-3.803566-0.8590851-8.466217-6.6258392-10.9200516c-6.0123749-2.4538422-9.8165436-3.43573-13.1294556-4.9082756
		c0,0-3.6807556-1.9625893-5.3989258-3.4351311c-5.7667542-4.4176254-11.1656799-11.5341072-9.3253021-23.0676193
		C151.6930084,27.0308094,161.509552,19.9143238,175.4969025,19.9143238z M205.3131714,22.245348h47.3609619v14.3557835H236.846405
		v61.5951271h-16.073349V36.6011314h-15.4598846V22.245348z M266.1714172,21.2640533h20.4909668l21.7178955,76.9322052h-17.3002625
		l-3.9263611-14.8464279h-21.8413086l-3.5573425,14.8464279H244.453537L266.1714172,21.2640533z M276.2323914,35.6198349
		l-8.466217,34.7239456h17.1780701l-8.466217-34.7239456H276.2323914z M337.0918579,21.5090771
		c3.4351196,0,30.5519409,0.8590832,30.5519409,37.5462112c0,39.1409683-30.9197693,39.1409683-30.9197693,39.1409683h-22.209137
		V21.509079h22.209137C336.7240295,21.509079,337.0918579,21.509079,337.0918579,21.5090771z M334.7602234,34.515728h-0.1221924
		h-3.5585632v50.7972908h3.5585632c0,0,16.8102112,0,16.8102112-25.8898926
		C351.4482422,35.1291885,336.6006165,34.515728,334.7602234,34.515728z M385.6809387,21.2640533h20.4909668l21.7178955,76.9322052
		h-17.3014832l-3.9263611-14.8464279h-21.8401184l-3.5585327,14.8464279h-17.3002625L385.6809387,21.2640533z M387.8891296,2
		h0.6134644c2.3316345,0.122812,4.1719971,0.3684349,5.3989258,0.859082l6.0123901,2.3310249
		c1.2268982,0.4912462,2.4538269,0.73627,3.6807556,0.73627c1.2268982,0,5.6445312-0.367836,6.7480469-3.0672951l5.15448,3.3129191
		c-0.7368774,2.0860004-1.7181702,3.803566-3.1907043,5.2761068c-2.2082214,2.2082138-4.9076538,3.3129187-8.0983887,3.1901073
		c-1.3491211,0-2.6994324-0.2456236-4.048584-0.6134586c-1.3503113-0.3684349-2.57724-0.8590832-3.9263611-1.3497305
		c-1.3503418-0.4906473-2.5772705-0.8590822-3.6807556-1.2269182c-1.1047058-0.3684349-2.3316345-0.7362709-3.3129272-0.7362709
		c-1.9637756-0.1228113-5.6445312-0.1228113-6.3802185,2.2082138l-5.6445312-2.4538355
		c0.8590698-2.3310251,1.9625854-4.04919,3.4351196-5.521132C382.6136475,2.981894,384.9440613,2,387.8891296,2z
		 M395.7419128,35.6198349l-8.466217,34.7239456h17.1780396l-8.466217-34.7239456H395.7419128z M454.3919373,18.5645943
		c6.1358032,0,10.9200439,0.9812946,14.6020203,2.9444828c3.6807556,1.9631901,6.3802185,4.6626492,8.342804,8.2211914
		c1.9637756,3.5579433,3.1907043,7.8527546,3.8041687,12.7604275C481.754364,47.3989677,482,52.7978897,482,58.5646439
		c0,5.8895645-0.245636,11.2884827-0.8590698,16.1961594c-0.6134644,4.9076691-1.8403931,9.0796738-3.8041687,12.6382141
		c-1.9625854,3.5579453-4.6620483,6.2574081-8.342804,8.0977783c-3.6819763,1.8409805-8.466217,2.6994629-14.6020203,2.6994629
		c-6.1345825,0-10.9200439-0.8584824-14.6007996-2.6994629c-3.6807556-1.8403702-6.3802185-4.5398331-8.3439941-8.0977783
		c-1.9625854-3.5585403-3.1895142-7.730545-3.8029785-12.6382141c-0.6134644-4.9076767-0.8590698-10.3065948-0.8590698-16.1961594
		c0-5.7667542,0.2456055-11.1656761,0.8590698-16.0739479c0.6134644-4.9076729,1.8403931-9.2024841,3.8029785-12.7604275
		c1.9637756-3.5585423,4.6632385-6.2580013,8.3439941-8.2211914S448.2573547,18.5645943,454.3919373,18.5645943z
		 M454.3919373,32.4297295c-2.3304138,0-4.1708069,0.367836-5.6433411,1.3497276
		c-1.4725342,0.9812965-2.4538269,2.4538383-3.1907043,4.5398369c-0.7356567,2.0854034-1.3491211,4.7848625-1.5947571,8.0977821
		c-0.2456055,3.3129196-0.3678284,7.3621063-0.3678284,12.0247574s0.1222229,8.7118378,0.3678284,12.0247574
		c0.245636,3.3129196,0.8591003,5.8895645,1.5947571,7.974968c0.7368774,2.0859985,1.7181702,3.5585403,3.1907043,4.5398331
		c1.4725342,0.9818954,3.3129272,1.4725418,5.6433411,1.4725418c2.3316345,0,4.1719971-0.4906464,5.6445618-1.4725418
		c1.4725342-0.9812927,2.57724-2.4538345,3.3128967-4.5398331c0.7356873-2.0854034,1.2269287-4.6620483,1.4725647-7.974968
		c0.2456055-3.3129196,0.3678284-7.3621101,0.3678284-12.0247574s-0.1222229-8.7118378-0.3678284-12.0247574
		c-0.245636-3.3129196-0.7368774-6.0123787-1.4725647-8.0977821c-0.7356567-2.0859985-1.8403625-3.5585403-3.3128967-4.5398369
		C458.5639343,32.7975655,456.7235718,32.4297295,454.3919373,32.4297295z"/>
</g>
</svg>
